:FULLY-SPECIFIED
:FORCE-ALL-JOINTS-BE-3DOF
:DEGREES
2548
root 4.00084 13.7694 -23.7192 1046.9 87.4249 -34.5158
lfemur -35.1981 -0.537815 -15.9535
ltibia 89.1887 0 0
lfoot -23.2768 31.1361 0
ltoes -40.4127 0 0
rfemur -54.6459 -17.0752 5.20865
rtibia 46.2639 0 0
rfoot -7.61961 5.93999 0
rtoes 6.88119 0 0
lowerback 17.4873 -0.505924 -3.65981
upperback -0.320849 -1.03867 3.1478
thorax -10.0792 -0.183587 5.81183
lowerneck 5.28915 -14.3483 -15.2639
upperneck -0.103809 -20.0958 14.8136
head 2.17248 -10.2029 6.23596
lclavicle 1.02819e-14 -4.29499e-16 0
lhumerus -41.2211 -48.2519 110.156
lradius 107.337 0 0
lwrist 80.8454 0 0
lhand 6.69979 400.372 0
lfingers 7.12502 0 0
lthumb 31.7771 -652.483 0
rclavicle -2.07233e-14 1.82882e-14 0
rhumerus 9.71122 -13.2122 -59.6265
rradius 81.1799 0 0
rwrist 6.70364 0 0
rhand -32.2611 -403.99 0
rfingers 7.12502 0 0
rthumb -5.06194 286.335 0
2549
root 3.94602 13.8019 -23.8491 1063.56 86.3371 -17.6461
lfemur -35.1988 -0.671148 -15.9849
ltibia 89.1397 0 0
lfoot -22.6724 31.5081 0
ltoes -40.7397 0 0
rfemur -54.7098 -17.0492 5.34576
rtibia 44.6842 0 0
rfoot -7.89949 5.47573 0
rtoes 6.27921 0 0
lowerback 17.7476 -0.491237 -4.00099
upperback -0.162749 -1.09174 3.16648
thorax -10.0379 -0.193917 6.04836
lowerneck 5.31201 -14.2867 -15.3649
upperneck -0.0311793 -20.0271 14.8521
head 2.19431 -10.1699 6.26569
lclavicle 1.13519e-14 1.29848e-15 0
lhumerus -40.7737 -48.4981 109.971
lradius 106.95 0 0
lwrist 80.2985 0 0
lhand 6.66033 400.375 0
lfingers 7.12502 0 0
lthumb 31.4819 -652.469 0
rclavicle -2.09564e-14 1.81625e-14 0
rhumerus 10.9086 -11.6184 -58.9748
rradius 81.9165 0 0
rwrist 3.81289 0 0
rhand -31.6064 -403.595 0
rfingers 7.12502 0 0
rthumb -4.65142 286.593 0
2550
root 3.89319 13.8344 -23.9859 1073.5 85.0017 -7.42388
lfemur -35.2226 -0.644716 -16.0156
ltibia 88.9983 0 0
lfoot -22.172 31.816 0
ltoes -41.0924 0 0
rfemur -54.8943 -16.9739 5.74208
rtibia 43.1733 0 0
rfoot -8.17169 5.0242 0
rtoes 5.61414 0 0
lowerback 18.0528 -0.516278 -4.32661
upperback -0.00628117 -1.21048 3.06841
thorax -10.0158 -0.240168 6.16496
lowerneck 5.1318 -14.2786 -15.2805
upperneck 0.320545 -20.0117 14.7351
head 2.30353 -10.1528 6.19413
lclavicle 1.23858e-14 2.96821e-15 0
lhumerus -40.4122 -48.697 109.822
lradius 106.54 0 0
lwrist 79.714 0 0
lhand 6.59756 400.38 0
lfingers 7.12502 0 0
lthumb 31.2193 -652.457 0
rclavicle -2.1625e-14 1.78019e-14 0
rhumerus 12.2971 -9.7701 -58.2191
rradius 82.6681 0 0
rwrist 1.03899 0 0
rhand -31.0168 -403.239 0
rfingers 7.12502 0 0
rthumb -4.29836 286.815 0
2551
root 3.8419 13.8722 -24.1304 1077.93 83.3645 -2.81795
lfemur -35.2916 -0.567908 -16.1046
ltibia 88.7729 0 0
lfoot -21.7932 32.0492 0
ltoes -41.4662 0 0
rfemur -55.1891 -16.8538 6.37505
rtibia 41.7484 0 0
rfoot -8.43365 4.58966 0
rtoes 4.89386 0 0
lowerback 18.2457 -0.517811 -4.66981
upperback 0.16141 -1.28748 3.07361
thorax -9.91986 -0.265828 6.3916
lowerneck 4.85866 -14.2997 -15.423
upperneck 0.777835 -20.0535 14.8342
head 2.51344 -10.1612 6.19559
lclavicle 1.33657e-14 4.55057e-15 0
lhumerus -40.1443 -48.8444 109.712
lradius 106.112 0 0
lwrist 79.1004 0 0
lhand 6.51394 400.386 0
lfingers 7.12502 0 0
lthumb 30.994 -652.447 0
rclavicle -2.26833e-14 1.72311e-14 0
rhumerus 13.8496 -7.70364 -57.3741
rradius 83.4197 0 0
rwrist -1.58467 0 0
rhand -30.5053 -402.93 0
rfingers 7.12502 0 0
rthumb -4.01042 286.997 0
2552
root 3.79253 13.9055 -24.2838 1081.98 81.5396 1.29475
lfemur -35.4026 -0.444455 -16.2478
ltibia 88.4718 0 0
lfoot -21.5532 32.197 0
ltoes -41.8572 0 0
rfemur -55.5836 -16.6929 7.22215
rtibia 40.4267 0 0
rfoot -8.68282 4.17634 0
rtoes 4.12627 0 0
lowerback 18.3891 -0.433872 -5.18754
upperback 0.23981 -1.29862 3.01368
thorax -9.90242 -0.250216 6.63162
lowerneck 4.78092 -14.3116 -15.5164
upperneck 1.00835 -20.0839 14.8676
head 2.61155 -10.1724 6.19855
lclavicle 1.42734e-14 6.01644e-15 0
lhumerus -39.9778 -48.936 109.644
lradius 105.669 0 0
lwrist 78.4659 0 0
lhand 6.41192 400.393 0
lfingers 7.12502 0 0
lthumb 30.8106 -652.439 0
rclavicle -2.40855e-14 1.64749e-14 0
rhumerus 15.5386 -5.45539 -56.4548
rradius 84.1563 0 0
rwrist -4.02469 0 0
rhand -30.0848 -402.676 0
rfingers 7.12502 0 0
rthumb -3.79527 287.132 0
2553
root 3.74578 13.9462 -24.4393 1082.89 79.466 2.26501
lfemur -35.5522 -0.27809 -16.4407
ltibia 88.1036 0 0
lfoot -21.4693 32.2486 0
ltoes -42.2609 0 0
rfemur -56.0674 -16.4957 8.26083
rtibia 39.2254 0 0
rfoot -8.91662 3.78851 0
rtoes 3.31925 0 0
lowerback 18.3971 -0.298843 -5.26873
upperback 0.360865 -1.1575 2.81727
thorax -9.79558 -0.192928 6.41846
lowerneck 4.90586 -14.4058 -15.2718
upperneck 1.02539 -20.2192 14.9819
head 2.60521 -10.2433 6.19638
lclavicle 1.50909e-14 7.33669e-15 0
lhumerus -39.9206 -48.9675 109.62
lradius 105.217 0 0
lwrist 77.8189 0 0
lhand 6.29395 400.402 0
lfingers 7.12502 0 0
lthumb 30.6739 -652.432 0
rclavicle -2.57858e-14 1.55579e-14 0
rhumerus 17.3369 -3.06169 -55.4761
rradius 84.8627 0 0
rwrist -6.24771 0 0
rhand -29.7683 -402.484 0
rfingers 7.12502 0 0
rthumb -3.66056 287.217 0
2554
root 3.70024 13.9904 -24.5993 1083.51 77.1642 2.826
lfemur -35.737 -0.0725425 -16.6791
ltibia 87.6765 0 0
lfoot -21.5168 32.2677 0
ltoes -42.6731 0 0
rfemur -56.6299 -16.2664 9.46855
rtibia 38.1618 0 0
rfoot -9.1325 3.4304 0
rtoes 2.48068 0 0
lowerback 18.4732 -0.154705 -5.55318
upperback 0.37518 -1.0355 2.79104
thorax -9.83679 -0.121206 6.52545
lowerneck 4.88969 -14.4459 -15.411
upperneck 1.11239 -20.2914 15.0951
head 2.6708 -10.2789 6.23406
lclavicle 1.58003e-14 8.4822e-15 0
lhumerus -39.8241 -49.0072 109.582
lradius 104.761 0 0
lwrist 77.1678 0 0
lhand 6.16248 400.412 0
lfingers 7.12502 0 0
lthumb 30.5884 -652.428 0
rclavicle -2.77381e-14 1.45049e-14 0
rhumerus 19.2171 -0.558908 -54.4527
rradius 85.5238 0 0
rwrist -8.22032 0 0
rhand -29.5689 -402.364 0
rfingers 7.12502 0 0
rthumb -3.61395 287.246 0
2555
root 3.65516 14.0354 -24.7653 1083.59 74.6572 2.75456
lfemur -35.9536 0.168454 -16.9586
ltibia 87.1991 0 0
lfoot -21.6535 32.3229 0
ltoes -43.0896 0 0
rfemur -57.2606 -16.0093 10.8228
rtibia 37.2529 0 0
rfoot -9.32791 3.10627 0
rtoes 1.61846 0 0
lowerback 18.5157 -0.012518 -5.85612
upperback 0.37661 -0.910408 2.8475
thorax -9.87376 -0.0444394 6.73412
lowerneck 4.82441 -14.4445 -15.5597
upperneck 1.10807 -20.2919 15.1324
head 2.69902 -10.2778 6.25792
lclavicle 1.63834e-14 9.42386e-15 0
lhumerus -39.5458 -49.1218 109.474
lradius 104.304 0 0
lwrist 76.5208 0 0
lhand 6.01997 400.423 0
lfingers 7.12502 0 0
lthumb 30.5589 -652.427 0
rclavicle -2.98969e-14 1.33407e-14 0
rhumerus 21.152 2.01659 -53.3996
rradius 86.1246 0 0
rwrist -9.90914 0 0
rhand -29.4995 -402.322 0
rfingers 7.12502 0 0
rthumb -3.55798 287.298 0
2556
root 3.60577 14.0864 -24.9403 1083.52 71.9333 2.39452
lfemur -36.1988 0.44117 -17.2749
ltibia 86.6796 0 0
lfoot -21.8711 32.4106 0
ltoes -43.506 0 0
rfemur -57.949 -15.7287 12.301
rtibia 36.5161 0 0
rfoot -9.50027 2.82034 0
rtoes 0.740459 0 0
lowerback 18.5304 0.137109 -6.05231
upperback 0.332434 -0.756319 2.87578
thorax -9.95405 0.0428657 6.84202
lowerneck 4.7305 -14.4346 -15.6074
upperneck 1.02526 -20.2657 15.163
head 2.69365 -10.2625 6.27057
lclavicle 1.68222e-14 1.01325e-14 0
lhumerus -39.102 -49.3044 109.302
lradius 103.852 0 0
lwrist 75.8863 0 0
lhand 5.86888 400.434 0
lfingers 7.12502 0 0
lthumb 30.5481 -652.407 0
rclavicle -3.2216e-14 1.20899e-14 0
rhumerus 23.1141 4.62845 -52.3316
rradius 86.65 0 0
rwrist -11.2808 0 0
rhand -29.4644 -402.292 0
rfingers 7.12502 0 0
rthumb -3.39648 287.446 0
2557
root 3.56015 14.1369 -25.1132 1083.52 69.0786 2.21086
lfemur -36.4692 0.741872 -17.6236
ltibia 86.1266 0 0
lfoot -22.1609 32.5274 0
ltoes -43.9182 0 0
rfemur -58.6847 -15.4288 13.8806
rtibia 35.9685 0 0
rfoot -9.64704 2.57689 0
rtoes -0.145425 0 0
lowerback 18.62 0.269946 -6.37599
upperback 0.335914 -0.654196 2.90559
thorax -10.0146 0.110257 7.04068
lowerneck 4.40711 -14.3742 -15.3666
upperneck 0.97056 -20.124 15.0198
head 2.66789 -10.1789 6.18894
lclavicle 1.70987e-14 1.05791e-14 0
lhumerus -38.5095 -49.5482 109.071
lradius 103.409 0 0
lwrist 75.2727 0 0
lhand 5.71165 400.446 0
lfingers 7.12502 0 0
lthumb 30.5166 -652.348 0
rclavicle -3.46498e-14 1.07773e-14 0
rhumerus 25.0763 7.24031 -51.2637
rradius 87.0849 0 0
rwrist -12.3019 0 0
rhand -29.3627 -402.205 0
rfingers 7.12502 0 0
rthumb -3.13903 287.683 0
